<svg xmlns="http://www.w3.org/2000/svg" viewBox="0 0 100 100" style="background:black">
  <defs>
    <filter id="blur"><feGaussianBlur stdDeviation="0.5" /></filter>
    <filter id="glow"><feGaussianBlur stdDeviation="1.5" /><feMerge><feMergeNode/><feMergeNode in="SourceGraphic"/></feMerge></filter>
  </defs>
  <!-- Skull/Background -->
  <ellipse cx="50" cy="50" rx="40" ry="44" fill="#1a1a1a" stroke="#333" stroke-width="1" />
  <!-- Brain Parenchyma -->
  <path d="M50 12 C 30 12 15 30 15 50 C 15 70 30 88 50 88 C 70 88 85 70 85 50 C 85 30 70 12 50 12" fill="#2a2a2a" />
  <!-- White Matter -->
  <path d="M50 25 C 35 25 25 40 25 55 C 25 70 35 78 50 78 C 65 78 75 70 75 55 C 75 40 65 25 50 25" fill="#3a3a3a" opacity="0.6" filter="url(#blur)" />
  <!-- Ventricles (Normal) -->
  <path d="M48 40 Q 50 35 52 40 L 52 60 Q 50 65 48 60 Z" fill="black" />
  <path d="M48 42 Q 40 35 44 28" stroke="black" stroke-width="3" fill="none" stroke-linecap="round" />
  <path d="M52 42 Q 60 35 56 28" stroke="black" stroke-width="3" fill="none" stroke-linecap="round" />
  <path d="M48 58 Q 40 65 38 55" stroke="black" stroke-width="3" fill="none" stroke-linecap="round" />
  <path d="M52 58 Q 60 65 62 55" stroke="black" stroke-width="3" fill="none" stroke-linecap="round" />
  <!-- Label -->
  <text x="50" y="95" fill="white" font-size="6" font-family="monospace" text-anchor="middle" opacity="0.5">STAGE 0</text>
</svg>